<svg data-v-29081953="" xmlns="http://www.w3.org/2000/svg" viewBox="0 0 300 300"><!----><defs data-v-29081953=""><!----></defs><rect data-v-29081953="" fill="#3D1240" x="0" y="0" width="300px" height="300px" class="logo-background-square"></rect><defs data-v-29081953=""><!----></defs><g data-v-29081953="" id="441a58ea-07f3-4510-82f1-729bf18acdcc" fill="#DDBA2E" transform="matrix(2.4834005618321835,0,0,2.4834005618321835,17.84564999484789,171.64992996408918)"><path d="M6.71 9.63L6.71 9.63L6.71 9.63Q7.01 9.83 7.43 10.31L7.43 10.31L7.43 10.31Q7.84 10.79 7.97 11.49L7.97 11.49L7.97 11.49Q8.11 12.18 7.84 12.82L7.84 12.82L7.84 12.82Q7.57 13.45 7.08 13.99L7.08 13.99L7.08 13.99Q5.98 15.18 4.07 15.44L4.07 15.44L4.07 15.44Q2.74 15.61 0.99 15.44L0.99 15.44L0.99 15.44Q0.85 15.43 0.87 15.27L0.87 15.27L1.74 5.19L1.74 5.19Q1.90 4.59 2.32 4.37L2.32 4.37L2.32 4.37Q2.49 4.28 2.67 4.30L2.67 4.30L2.67 4.30Q4.00 4.42 5.11 4.65L5.11 4.65L5.11 4.65Q6.22 4.87 6.80 5.31L6.80 5.31L6.80 5.31Q7.92 6.13 7.95 7.27L7.95 7.27L7.95 7.27Q7.97 8.50 6.71 9.63ZM6.26 13.94L6.26 13.94Q6.51 13.79 6.62 13.69L6.62 13.69L6.62 13.69Q6.72 13.58 6.87 13.22L6.87 13.22L6.87 13.22Q7.01 12.85 6.91 12.29L6.91 12.29L6.91 12.29Q6.80 11.72 6.31 11.14L6.31 11.14L6.31 11.14Q5.81 10.57 5.53 10.54L5.53 10.54L5.53 10.54Q5.08 10.51 4.42 10.51L4.42 10.51L4.42 10.51Q3.75 10.51 2.28 10.46L2.28 10.46L1.95 14.39L1.95 14.39Q4.91 14.66 6.26 13.94L6.26 13.94ZM2.72 5.46L2.38 9.28L4.80 9.39L4.80 9.39Q5.32 9.42 5.74 9.45L5.74 9.45L5.74 9.45Q6.15 9.42 6.52 9.04L6.52 9.04L6.52 9.04Q6.90 8.67 6.89 8.12L6.89 8.12L6.89 8.12Q6.86 7.07 5.96 6.40L5.96 6.40L5.96 6.40Q5.31 5.91 4.07 5.67L4.07 5.67L4.07 5.67Q3.49 5.56 2.72 5.46L2.72 5.46ZM10.15 4.02L10.15 4.02Q10.16 3.85 10.33 3.63L10.33 3.63L10.33 3.63Q10.50 3.40 10.68 3.28L10.68 3.28L10.68 3.28Q10.86 3.16 10.98 3.14L10.98 3.14L10.98 3.14Q11.23 3.07 11.21 3.29L11.21 3.29L10.18 14.55L10.18 14.55Q10.16 14.70 10.00 14.93L10.00 14.93L10.00 14.93Q9.83 15.16 9.65 15.28L9.65 15.28L9.65 15.28Q9.46 15.40 9.35 15.43L9.35 15.43L9.35 15.43Q9.10 15.50 9.11 15.27L9.11 15.27L10.15 4.02ZM17.91 13.96L17.91 13.96L17.91 13.96Q18.09 13.93 18.12 14.06L18.12 14.06L18.12 14.06Q18.14 14.20 18.00 14.42L18.00 14.42L18.00 14.42Q17.85 14.64 17.50 14.92L17.50 14.92L17.50 14.92Q17.15 15.20 16.76 15.36L16.76 15.36L16.76 15.36Q15.99 15.67 15.81 15.08L15.81 15.08L15.81 15.08Q15.72 14.84 15.74 14.20L15.74 14.20L15.74 14.20Q15.01 15.08 14.27 15.34L14.27 15.34L14.27 15.34Q13.52 15.61 12.88 15.43L12.88 15.43L12.88 15.43Q10.88 14.87 11.68 10.81L11.68 10.81L11.68 10.81Q11.94 9.46 12.61 8.60L12.61 8.60L12.61 8.60Q13.76 7.11 15.43 7.34L15.43 7.34L15.43 7.34Q16.13 7.42 16.52 7.85L16.52 7.85L16.52 7.85Q16.84 7.42 17.19 7.34L17.19 7.34L17.19 7.34Q17.30 7.31 17.37 7.36L17.37 7.36L17.37 7.36Q17.43 7.41 17.42 7.52L17.42 7.52L17.42 7.52Q16.60 13.44 16.84 14.18L16.84 14.18L16.84 14.18Q16.95 14.52 17.21 14.39L17.21 14.39L17.21 14.39Q17.32 14.34 17.53 14.16L17.53 14.16L17.53 14.16Q17.74 13.99 17.91 13.96ZM15.81 12.80L15.81 12.80L15.81 12.80Q15.90 11.68 15.95 11.37L15.95 11.37L15.95 11.37Q16.31 8.62 14.59 8.40L14.59 8.40L14.59 8.40Q14.17 8.34 13.86 8.41L13.86 8.41L13.86 8.41Q13.44 8.50 13.29 8.68L13.29 8.68L13.29 8.68Q12.94 9.13 12.71 10.28L12.71 10.28L12.71 10.28Q12.49 11.42 12.52 12.31L12.52 12.31L12.52 12.31Q12.60 14.04 13.75 14.36L13.75 14.36L13.75 14.36Q14.63 14.62 15.11 14.04L15.11 14.04L15.11 14.04Q15.46 13.62 15.81 12.80ZM24.73 9.47L24.73 9.47L24.73 9.47Q24.61 9.69 24.39 9.88L24.39 9.88L24.39 9.88Q24.18 10.07 24.00 10.11L24.00 10.11L24.00 10.11Q23.81 10.15 23.77 10.04L23.77 10.04L23.77 10.04Q23.53 9.39 23.01 8.94L23.01 8.94L23.01 8.94Q22.48 8.48 21.91 8.40L21.91 8.40L21.91 8.40Q21.34 8.32 21.01 8.50L21.01 8.50L21.01 8.50Q20.73 9.09 21.17 9.74L21.17 9.74L21.17 9.74Q21.55 10.32 22.68 10.77L22.68 10.77L22.68 10.77Q23.45 11.07 23.70 11.21L23.70 11.21L23.70 11.21Q24.82 11.90 24.79 12.98L24.79 12.98L24.79 12.98Q24.77 13.83 23.98 14.62L23.98 14.62L23.98 14.62Q22.55 16.03 20.75 15.15L20.75 15.15L20.75 15.15Q19.73 14.64 19.07 13.59L19.07 13.59L19.07 13.59Q19.01 13.50 19.12 13.29L19.12 13.29L19.12 13.29Q19.22 13.08 19.43 12.88L19.43 12.88L19.43 12.88Q19.64 12.68 19.84 12.61L19.84 12.61L19.84 12.61Q20.03 12.54 20.09 12.64L20.09 12.64L20.09 12.64Q20.85 13.83 22.02 14.25L22.02 14.25L22.02 14.25Q22.78 14.52 23.38 14.32L23.38 14.32L23.38 14.32Q23.58 14.25 23.62 14.20L23.62 14.20L23.62 14.20Q23.80 13.89 23.69 13.40L23.69 13.40L23.69 13.40Q23.49 12.50 22.13 11.96L22.13 11.96L22.13 11.96Q22.08 11.93 21.81 11.83L21.81 11.83L21.81 11.83Q21.06 11.54 20.80 11.34L20.80 11.34L20.80 11.34Q19.53 10.42 19.96 9.13L19.96 9.13L19.96 9.13Q20.13 8.61 20.52 8.20L20.52 8.20L20.52 8.20Q21.52 7.17 22.68 7.34L22.68 7.34L22.68 7.34Q23.41 7.43 23.98 7.93L23.98 7.93L23.98 7.93Q24.56 8.43 24.81 9.14L24.81 9.14L24.81 9.14Q24.85 9.25 24.73 9.47ZM26.74 8.20L26.74 8.20Q26.75 8.04 26.92 7.82L26.92 7.82L26.92 7.82Q27.09 7.60 27.27 7.48L27.27 7.48L27.27 7.48Q27.45 7.35 27.57 7.32L27.57 7.32L27.57 7.32Q27.82 7.25 27.80 7.48L27.80 7.48L27.75 8.12L27.75 8.12Q28.59 7.32 29.74 7.34L29.74 7.34L29.74 7.34Q33.21 7.36 32.26 11.56L32.26 11.56L32.26 11.56Q31.89 13.16 31.32 13.96L31.32 13.96L31.32 13.96Q30.74 14.76 30.14 15.10L30.14 15.10L30.14 15.10Q29.54 15.44 29.01 15.44L29.01 15.44L29.01 15.44Q27.82 15.44 27.17 14.63L27.17 14.63L27.17 14.63Q27.17 14.63 26.82 18.66L26.82 18.66L26.82 18.66Q26.81 18.82 26.64 19.04L26.64 19.04L26.64 19.04Q26.47 19.26 26.29 19.39L26.29 19.39L26.29 19.39Q26.11 19.52 26.00 19.54L26.00 19.54L26.00 19.54Q25.75 19.61 25.76 19.39L25.76 19.39L26.74 8.20ZM27.51 10.79L27.47 11.38L27.47 11.38Q27.47 11.40 27.47 11.42L27.47 11.42L27.47 11.42Q27.71 14.38 29.79 14.38L29.79 14.38L29.79 14.38Q30.24 14.38 30.38 14.22L30.38 14.22L30.38 14.22Q30.87 13.72 31.25 12.00L31.25 12.00L31.25 12.00Q31.64 10.29 31.08 9.35L31.08 9.35L31.08 9.35Q30.52 8.41 28.95 8.40L28.95 8.40L28.95 8.40Q28.21 8.40 28.04 8.64L28.04 8.64L28.04 8.64Q27.86 8.88 27.71 9.41L27.71 9.41L27.71 9.41Q27.57 9.95 27.55 10.34L27.55 10.34L27.55 10.34Q27.54 10.72 27.51 10.79L27.51 10.79ZM34.43 4.02L34.43 4.02Q34.44 3.85 34.61 3.63L34.61 3.63L34.61 3.63Q34.78 3.40 34.96 3.28L34.96 3.28L34.96 3.28Q35.14 3.16 35.25 3.14L35.25 3.14L35.25 3.14Q35.50 3.07 35.49 3.29L35.49 3.29L35.01 8.54L35.01 8.54Q35.45 8.02 36.03 7.68L36.03 7.68L36.03 7.68Q36.61 7.34 37.20 7.34L37.20 7.34L37.20 7.34Q39.59 7.31 39.24 10.63L39.24 10.63L38.91 14.55L38.91 14.55Q38.89 14.70 38.72 14.92L38.72 14.92L38.72 14.92Q38.56 15.15 38.37 15.27L38.37 15.27L38.37 15.27Q38.19 15.40 38.08 15.43L38.08 15.43L38.08 15.43Q37.83 15.50 37.84 15.27L37.84 15.27L38.18 11.35L38.18 11.35Q38.50 8.39 36.44 8.40L36.44 8.40L36.44 8.40Q36.04 8.40 35.84 8.51L35.84 8.51L35.84 8.51Q35.35 8.79 34.93 10.05L34.93 10.05L34.93 10.05Q34.90 10.14 34.85 10.23L34.85 10.23L34.45 14.55L34.45 14.55Q34.44 14.70 34.27 14.93L34.27 14.93L34.27 14.93Q34.10 15.16 33.92 15.28L33.92 15.28L33.92 15.28Q33.74 15.40 33.63 15.43L33.63 15.43L33.63 15.43Q33.38 15.50 33.39 15.27L33.39 15.27L34.43 4.02ZM45.72 11.73L41.66 11.63L41.66 11.63Q41.61 14.22 43.92 14.38L43.92 14.38L43.92 14.38Q44.41 14.42 44.80 14.35L44.80 14.35L44.80 14.35Q45.30 14.27 45.36 14.15L45.36 14.15L45.36 14.15Q45.47 13.94 45.69 13.75L45.69 13.75L45.69 13.75Q45.91 13.55 46.09 13.49L46.09 13.49L46.09 13.49Q46.27 13.43 46.34 13.54L46.34 13.54L46.34 13.54Q46.44 13.72 46.07 14.20L46.07 14.20L46.07 14.20Q45.71 14.67 45.33 14.95L45.33 14.95L45.33 14.95Q44.94 15.22 44.58 15.32L44.58 15.32L44.58 15.32Q43.76 15.54 43.11 15.44L43.11 15.44L43.11 15.44Q40.35 15.26 40.63 11.96L40.63 11.96L40.63 11.96Q40.71 10.93 40.94 10.18L40.94 10.18L40.94 10.18Q41.16 9.44 41.65 8.78L41.65 8.78L41.65 8.78Q42.77 7.27 44.44 7.34L44.44 7.34L44.44 7.34Q47.08 7.43 46.65 10.85L46.65 10.85L46.65 10.85Q46.52 11.41 46.09 11.65L46.09 11.65L46.09 11.65Q45.92 11.75 45.72 11.73L45.72 11.73ZM41.76 10.58L41.76 10.58L41.76 10.58Q41.86 10.56 41.92 10.56L41.92 10.56L45.64 10.64L45.64 10.64Q45.60 8.47 43.64 8.40L43.64 8.40L43.64 8.40Q42.69 8.36 42.36 8.81L42.36 8.81L42.36 8.81Q41.94 9.37 41.76 10.58ZM48.54 8.22L48.54 8.22Q48.55 8.06 48.72 7.84L48.72 7.84L48.72 7.84Q48.89 7.62 49.07 7.50L49.07 7.50L49.07 7.50Q49.25 7.38 49.38 7.35L49.38 7.35L49.38 7.35Q49.63 7.29 49.60 7.50L49.60 7.50L49.50 8.43L49.50 8.43Q49.90 7.98 50.46 7.66L50.46 7.66L50.46 7.66Q51.02 7.34 51.60 7.34L51.60 7.34L51.60 7.34Q52.98 7.32 53.31 8.71L53.31 8.71L53.31 8.71Q53.80 8.06 54.43 7.70L54.43 7.70L54.43 7.70Q55.06 7.34 55.65 7.34L55.65 7.34L55.65 7.34Q57.62 7.31 57.27 10.63L57.27 10.63L56.94 14.55L56.94 14.55Q56.92 14.70 56.76 14.92L56.76 14.92L56.76 14.92Q56.59 15.15 56.41 15.27L56.41 15.27L56.41 15.27Q56.22 15.40 56.11 15.43L56.11 15.43L56.11 15.43Q55.86 15.50 55.87 15.27L55.87 15.27L56.21 11.35L56.21 11.35Q56.53 8.39 54.89 8.40L54.89 8.40L54.89 8.40Q54.49 8.40 54.29 8.51L54.29 8.51L54.29 8.51Q53.82 8.79 53.41 9.98L53.41 9.98L53.41 9.98Q53.40 10.29 53.37 10.63L53.37 10.63L53.03 14.55L53.03 14.55Q53.02 14.70 52.85 14.92L52.85 14.92L52.85 14.92Q52.68 15.15 52.50 15.27L52.50 15.27L52.50 15.27Q52.32 15.40 52.21 15.43L52.21 15.43L52.21 15.43Q51.95 15.50 51.97 15.27L51.97 15.27L52.30 11.35L52.30 11.35Q52.33 11.03 52.33 10.86L52.33 10.86L52.33 10.86Q52.33 10.70 52.35 10.64L52.35 10.64L52.35 10.64Q52.39 8.37 50.85 8.40L50.85 8.40L50.85 8.40Q50.44 8.40 50.25 8.51L50.25 8.51L50.25 8.51Q49.76 8.79 49.34 10.05L49.34 10.05L49.34 10.05Q49.34 10.07 49.34 10.09L49.34 10.09L48.86 14.56L48.86 14.56Q48.85 14.73 48.68 14.95L48.68 14.95L48.68 14.95Q48.51 15.16 48.33 15.28L48.33 15.28L48.33 15.28Q48.15 15.40 48.02 15.43L48.02 15.43L48.02 15.43Q47.77 15.48 47.80 15.26L47.80 15.26L48.54 8.22ZM59.33 8.22L59.33 8.22Q59.35 8.06 59.51 7.84L59.51 7.84L59.51 7.84Q59.68 7.62 59.86 7.50L59.86 7.50L59.86 7.50Q60.05 7.38 60.17 7.35L60.17 7.35L60.17 7.35Q60.42 7.29 60.40 7.50L60.40 7.50L59.65 14.56L59.65 14.56Q59.64 14.73 59.47 14.95L59.47 14.95L59.47 14.95Q59.30 15.16 59.12 15.28L59.12 15.28L59.12 15.28Q58.94 15.40 58.81 15.43L58.81 15.43L58.81 15.43Q58.56 15.48 58.59 15.26L58.59 15.26L59.33 8.22ZM59.40 5.81L59.40 5.81Q59.42 5.66 59.58 5.43L59.58 5.43L59.58 5.43Q59.74 5.21 59.92 5.08L59.92 5.08L59.92 5.08Q60.10 4.96 60.23 4.93L60.23 4.93L60.23 4.93Q60.48 4.86 60.47 5.08L60.47 5.08L60.40 6.06L60.40 6.06Q60.38 6.22 60.22 6.44L60.22 6.44L60.22 6.44Q60.06 6.66 59.88 6.79L59.88 6.79L59.88 6.79Q59.70 6.92 59.57 6.94L59.57 6.94L59.57 6.94Q59.32 7.01 59.33 6.79L59.33 6.79L59.40 5.81ZM61.99 8.22L61.99 8.22Q62.01 8.06 62.17 7.84L62.17 7.84L62.17 7.84Q62.34 7.62 62.52 7.50L62.52 7.50L62.52 7.50Q62.71 7.38 62.83 7.35L62.83 7.35L62.83 7.35Q63.08 7.29 63.06 7.50L63.06 7.50L62.96 8.43L62.96 8.43Q63.35 7.98 63.91 7.66L63.91 7.66L63.91 7.66Q64.47 7.34 65.06 7.34L65.06 7.34L65.06 7.34Q67.45 7.31 67.10 10.63L67.10 10.63L66.77 14.55L66.77 14.55Q66.75 14.70 66.58 14.92L66.58 14.92L66.58 14.92Q66.42 15.15 66.23 15.27L66.23 15.27L66.23 15.27Q66.05 15.40 65.94 15.43L65.94 15.43L65.94 15.43Q65.69 15.50 65.70 15.27L65.70 15.27L66.04 11.35L66.04 11.35Q66.36 8.39 64.30 8.40L64.30 8.40L64.30 8.40Q63.90 8.40 63.70 8.51L63.70 8.51L63.70 8.51Q63.21 8.79 62.79 10.05L62.79 10.05L62.79 10.05Q62.79 10.07 62.79 10.09L62.79 10.09L62.31 14.56L62.31 14.56Q62.30 14.73 62.13 14.95L62.13 14.95L62.13 14.95Q61.96 15.16 61.78 15.28L61.78 15.28L61.78 15.28Q61.60 15.40 61.47 15.43L61.47 15.43L61.47 15.43Q61.22 15.48 61.25 15.26L61.25 15.26L61.99 8.22ZM73.92 7.78L73.92 7.78L73.92 7.78Q74.20 7.43 74.41 7.38L74.41 7.38L74.41 7.38Q74.76 7.28 74.75 7.49L74.75 7.49L74.75 7.49Q74.47 12.04 74.33 13.02L74.33 13.02L74.33 13.02Q74.21 14.18 73.96 15.02L73.96 15.02L73.96 15.02Q73.71 15.86 73.14 16.64L73.14 16.64L73.14 16.64Q72.58 17.42 71.82 17.79L71.82 17.79L71.82 17.79Q71.06 18.17 70.29 18.16L70.29 18.16L70.29 18.16Q68.71 18.14 68.12 17.18L68.12 17.18L68.12 17.18Q68.07 17.08 68.17 16.86L68.17 16.86L68.17 16.86Q68.28 16.65 68.49 16.46L68.49 16.46L68.49 16.46Q68.70 16.27 68.89 16.20L68.89 16.20L68.89 16.20Q69.09 16.13 69.16 16.23L69.16 16.23L69.16 16.23Q69.66 17.08 71.08 17.09L71.08 17.09L71.08 17.09Q72.09 17.11 72.46 16.56L72.46 16.56L72.46 16.56Q73.00 15.82 73.22 14.17L73.22 14.17L73.22 14.17Q72.49 15.06 71.74 15.34L71.74 15.34L71.74 15.34Q70.99 15.61 70.35 15.43L70.35 15.43L70.35 15.43Q68.35 14.87 69.15 10.81L69.15 10.81L69.15 10.81Q69.41 9.46 70.08 8.60L70.08 8.60L70.08 8.60Q71.23 7.11 72.90 7.34L72.90 7.34L72.90 7.34Q73.53 7.42 73.92 7.78ZM73.37 12.60L73.37 12.60L73.37 12.60Q73.47 11.52 73.46 11.52L73.46 11.52L73.46 11.52Q73.40 11.48 73.42 11.37L73.42 11.37L73.42 11.37Q73.78 8.62 72.06 8.40L72.06 8.40L72.06 8.40Q71.64 8.34 71.33 8.41L71.33 8.41L71.33 8.41Q70.90 8.50 70.76 8.68L70.76 8.68L70.76 8.68Q70.41 9.13 70.18 10.28L70.18 10.28L70.18 10.28Q69.96 11.42 69.99 12.31L69.99 12.31L69.99 12.31Q70.07 14.04 71.22 14.36L71.22 14.36L71.22 14.36Q72.10 14.62 72.58 14.04L72.58 14.04L72.58 14.04Q72.94 13.61 73.30 12.74L73.30 12.74L73.30 12.74Q73.33 12.67 73.37 12.60ZM84.25 9.63L84.25 9.63L84.25 9.63Q84.56 9.83 84.97 10.31L84.97 10.31L84.97 10.31Q85.39 10.79 85.52 11.49L85.52 11.49L85.52 11.49Q85.65 12.18 85.39 12.82L85.39 12.82L85.39 12.82Q85.12 13.45 84.63 13.99L84.63 13.99L84.63 13.99Q83.52 15.18 81.62 15.44L81.62 15.44L81.62 15.44Q80.29 15.61 78.54 15.44L78.54 15.44L78.54 15.44Q78.40 15.43 78.41 15.27L78.41 15.27L79.28 5.19L79.28 5.19Q79.45 4.59 79.87 4.37L79.87 4.37L79.87 4.37Q80.04 4.28 80.22 4.30L80.22 4.30L80.22 4.30Q81.55 4.42 82.66 4.65L82.66 4.65L82.66 4.65Q83.76 4.87 84.35 5.31L84.35 5.31L84.35 5.31Q85.47 6.13 85.50 7.27L85.50 7.27L85.50 7.27Q85.51 8.50 84.25 9.63ZM83.80 13.94L83.80 13.94Q84.06 13.79 84.16 13.69L84.16 13.69L84.16 13.69Q84.27 13.58 84.41 13.22L84.41 13.22L84.41 13.22Q84.56 12.85 84.45 12.29L84.45 12.29L84.45 12.29Q84.35 11.72 83.85 11.14L83.85 11.14L83.85 11.14Q83.36 10.57 83.08 10.54L83.08 10.54L83.08 10.54Q82.63 10.51 81.96 10.51L81.96 10.51L81.96 10.51Q81.30 10.51 79.83 10.46L79.83 10.46L79.49 14.39L79.49 14.39Q82.46 14.66 83.80 13.94L83.80 13.94ZM80.26 5.46L79.93 9.28L82.35 9.39L82.35 9.39Q82.87 9.42 83.29 9.45L83.29 9.45L83.29 9.45Q83.69 9.42 84.07 9.04L84.07 9.04L84.07 9.04Q84.45 8.67 84.43 8.12L84.43 8.12L84.43 8.12Q84.41 7.07 83.51 6.40L83.51 6.40L83.51 6.40Q82.85 5.91 81.62 5.67L81.62 5.67L81.62 5.67Q81.03 5.56 80.26 5.46L80.26 5.46ZM92.04 8.23L92.04 8.23Q92.05 8.08 92.21 7.85L92.21 7.85L92.21 7.85Q92.37 7.63 92.55 7.50L92.55 7.50L92.55 7.50Q92.74 7.38 92.85 7.35L92.85 7.35L92.85 7.35Q93.11 7.28 93.10 7.49L93.10 7.49L93.10 7.49Q92.82 12.04 92.68 13.02L92.68 13.02L92.68 13.02Q92.57 14.18 92.32 15.02L92.32 15.02L92.32 15.02Q92.06 15.86 91.50 16.64L91.50 16.64L91.50 16.64Q90.93 17.42 90.17 17.79L90.17 17.79L90.17 17.79Q89.42 18.17 88.65 18.16L88.65 18.16L88.65 18.16Q87.07 18.14 86.48 17.18L86.48 17.18L86.48 17.18Q86.42 17.08 86.53 16.86L86.53 16.86L86.53 16.86Q86.63 16.65 86.84 16.46L86.84 16.46L86.84 16.46Q87.05 16.27 87.25 16.20L87.25 16.20L87.25 16.20Q87.44 16.13 87.51 16.23L87.51 16.23L87.51 16.23Q88.02 17.08 89.43 17.09L89.43 17.09L89.43 17.09Q90.44 17.11 90.82 16.56L90.82 16.56L90.82 16.56Q91.34 15.83 91.56 14.24L91.56 14.24L91.56 14.24Q90.19 15.89 88.70 15.41L88.70 15.41L88.70 15.41Q86.74 14.80 87.75 8.20L87.75 8.20L87.75 8.20Q87.78 8.04 87.95 7.82L87.95 7.82L87.95 7.82Q88.13 7.60 88.30 7.48L88.30 7.48L88.30 7.48Q88.48 7.36 88.60 7.34L88.60 7.34L88.60 7.34Q88.72 7.32 88.77 7.37L88.77 7.37L88.77 7.37Q88.83 7.42 88.82 7.52L88.82 7.52L88.82 7.52Q88.20 11.73 88.77 13.41L88.77 13.41L88.77 13.41Q89.05 14.21 89.59 14.38L89.59 14.38L89.59 14.38Q90.45 14.66 90.94 14.08L90.94 14.08L90.94 14.08Q91.32 13.65 91.69 12.75L91.69 12.75L91.69 12.75Q91.70 12.71 91.73 12.66L91.73 12.66L91.73 12.66Q91.85 11.23 92.04 8.23L92.04 8.23ZM97.94 13.77L97.94 13.77L97.94 13.77Q98.11 13.73 98.14 13.87L98.14 13.87L98.14 13.87Q98.17 14 98.03 14.22L98.03 14.22L98.03 14.22Q97.89 14.43 97.48 14.76L97.48 14.76L97.48 14.76Q97.08 15.09 96.59 15.30L96.59 15.30L96.59 15.30Q95.62 15.69 95.14 15.11L95.14 15.11L95.14 15.11Q94.70 14.59 94.91 13.13L94.91 13.13L95.27 8.92L94.21 8.92L94.21 8.92Q94.00 8.92 94.09 8.65L94.09 8.65L94.09 8.65Q94.21 8.30 94.52 8.07L94.52 8.07L94.52 8.07Q94.84 7.84 94.99 7.84L94.99 7.84L95.37 7.84L95.58 5.45L95.58 5.45Q95.59 5.29 95.76 5.07L95.76 5.07L95.76 5.07Q95.93 4.84 96.11 4.72L96.11 4.72L96.11 4.72Q96.29 4.59 96.40 4.56L96.40 4.56L96.40 4.56Q96.66 4.49 96.64 4.72L96.64 4.72L96.38 7.84L96.38 7.84Q96.99 7.84 97.59 7.84L97.59 7.84L97.59 7.84Q97.80 7.84 97.71 8.12L97.71 8.12L97.71 8.12Q97.59 8.47 97.28 8.69L97.28 8.69L97.28 8.69Q96.96 8.92 96.81 8.92L96.81 8.92L96.28 8.92L95.97 12.42L95.97 12.42Q95.97 12.43 95.97 12.45L95.97 12.45L95.97 12.45Q95.77 13.71 96.15 14.13L96.15 14.13L96.15 14.13Q96.50 14.56 97.01 14.34L97.01 14.34L97.01 14.34Q97.24 14.22 97.50 14.01L97.50 14.01L97.50 14.01Q97.76 13.80 97.94 13.77ZM104.58 11.73L100.52 11.63L100.52 11.63Q100.46 14.22 102.77 14.38L102.77 14.38L102.77 14.38Q103.26 14.42 103.66 14.35L103.66 14.35L103.66 14.35Q104.16 14.27 104.22 14.15L104.22 14.15L104.22 14.15Q104.33 13.94 104.55 13.75L104.55 13.75L104.55 13.75Q104.76 13.55 104.94 13.49L104.94 13.49L104.94 13.49Q105.13 13.43 105.20 13.54L105.20 13.54L105.20 13.54Q105.29 13.72 104.93 14.20L104.93 14.20L104.93 14.20Q104.57 14.67 104.18 14.95L104.18 14.95L104.18 14.95Q103.80 15.22 103.43 15.32L103.43 15.32L103.43 15.32Q102.62 15.54 101.96 15.44L101.96 15.44L101.96 15.44Q99.20 15.26 99.48 11.96L99.48 11.96L99.48 11.96Q99.57 10.93 99.79 10.18L99.79 10.18L99.79 10.18Q100.02 9.44 100.51 8.78L100.51 8.78L100.51 8.78Q101.63 7.27 103.29 7.34L103.29 7.34L103.29 7.34Q105.94 7.43 105.50 10.85L105.50 10.85L105.50 10.85Q105.38 11.41 104.94 11.65L104.94 11.65L104.94 11.65Q104.78 11.75 104.58 11.73L104.58 11.73ZM100.62 10.58L100.62 10.58L100.62 10.58Q100.72 10.56 100.77 10.56L100.77 10.56L104.50 10.64L104.50 10.64Q104.45 8.47 102.49 8.40L102.49 8.40L102.49 8.40Q101.54 8.36 101.22 8.81L101.22 8.81L101.22 8.81Q100.80 9.37 100.62 10.58Z"></path></g><defs data-v-29081953=""><!----></defs><g data-v-29081953="" id="de00aed3-be66-40cd-b896-13cff632f26e" stroke="none" fill="#DDBA2E" transform="matrix(6.801948884381971,0,0,6.801948884381971,95.58440892494423,66.17856227179833)"><path d="M7.969 2L6 13.844 5.969 14h2.063l1.969-11.844.031-.156H7.969zM5 3.813l-.531.344-4 2.5L0 6.938v2.126l.469.281 4 2.5.531.344V9.814L2.094 8.001 5 6.188V3.813zm6 0v2.375l2.906 1.813L11 9.814v2.375l.531-.344 4-2.5.469-.281V6.938l-.469-.281-4-2.5L11 3.813z"></path></g><!----></svg>